<?xml version="1.0" standalone="no"?>
<!DOCTYPE svg PUBLIC "-//W3C//DTD SVG 1.1//EN" "http://www.w3.org/Graphics/SVG/1.1/DTD/svg11.dtd" >
<!--
advancedtomato by lynx
-->
<svg xmlns="http://www.w3.org/2000/svg" xmlns:xlink="http://www.w3.org/1999/xlink" version="1.1">
<metadata>
Created by FontForge 20190801 at Mon Dec 20 03:54:56 2021
 By LYNX

</metadata>
<defs>
<font id="advancedtomato" horiz-adv-x="512" >
  <font-face 
    font-family="advancedtomato"
    font-weight="400"
    font-stretch="normal"
    units-per-em="512"
    panose-1="2 0 5 9 0 0 0 0 0 0"
    ascent="480"
    descent="-32"
    bbox="-2 -25.6523 527 512"
    underline-thickness="0"
    underline-position="0"
    unicode-range="U+E000-E02B"
  />
<missing-glyph 
 />
    <glyph glyph-name=".notdef" 
 />
    <glyph glyph-name=".notdef" 
 />
    <glyph glyph-name=".null" horiz-adv-x="0" 
 />
    <glyph glyph-name="nonmarkingreturn" 
 />
    <glyph glyph-name="uniE000" unicode="&#xe000;" 
d="M317 169q13 -13 0 -25t-24 0l-99 100q-12 12 0 25l99 100q11 13 24 0q13 -12 0 -25l-80 -88l80 -87v0z" />
    <glyph glyph-name="uniE001" unicode="&#xe001;" 
d="M195 169l81 87l-81 88q-13 13 0 25q13 13 24 0l99 -100q12 -13 0 -25l-99 -100q-11 -12 -24 0t0 25v0z" />
    <glyph glyph-name="uniE002" unicode="&#xe002;" 
d="M169 195q-13 -12 -26 0q-12 12 0 25l101 97q14 13 24 0l101 -97q12 -13 0 -25q-13 -12 -26 0l-87 80l-87 -80v0z" />
    <glyph glyph-name="uniE003" unicode="&#xe003;" 
d="M344 317q12 13 25 0q13 -11 0 -24l-101 -98q-10 -12 -24 0l-101 98q-13 13 0 24q13 13 26 0l87 -79l88 79v0z" />
    <glyph glyph-name="uniE004" unicode="&#xe004;" 
d="M141 148l60 60v-150l-142 9l45 44q-59 63 -58 148q2 88 62 148q50 50 122 59l2 -52q-50 -9 -88 -45q-44 -44 -46 -109q0 -65 43 -112zM311 455l142 -9l-45 -44q59 -63 58 -148q-2 -88 -62 -148q-48 -49 -122 -60l-1 53q49 9 87 45q44 44 46 109q0 65 -43 112l-59 -60
l-1 150v0z" />
    <glyph glyph-name="uniE005" unicode="&#xe005;" 
d="M283 77v51h50v-51q0 -21 -15 -36t-36 -15h-205q-21 0 -36 15t-15 36v358q0 22 15 37q16 14 36 14h205q20 0 36 -14q15 -15 15 -37v-77h-50v77h-206v-358h206zM486 244l-101 -101v62h-230v77h230v61l101 -99v0z" />
    <glyph glyph-name="uniE006" unicode="&#xe006;" 
d="M212 77q-17 0 -28 14l-92 121q-9 12 -6 27q2 14 13 23q12 10 26 7q15 -1 24 -14l60 -79l152 243q7 12 22 15q14 3 27 -4q12 -7 15 -22q4 -12 -4 -27l-179 -287q-10 -16 -28 -16l-2 -1v0z" />
    <glyph glyph-name="uniE008" unicode="&#xe008;" 
d="M372 410q38 0 38 -33v-241q0 -34 -38 -34h-231q-39 0 -39 34v241q0 19 10 25q10 8 29 8h231v0z" />
    <glyph glyph-name="uniE009" unicode="&#xe009;" 
d="M377 269q7 -4 7 -13q0 -8 -7 -12l-219 -136q-12 -9 -21 -4q-9 6 -9 21v263q0 15 9 21q9 5 21 -3l219 -137v0z" />
    <glyph glyph-name="uniE00A" unicode="&#xe00a;" 
d="M79 336q-1 -1 -6 -11q-1 -5 -1 -13q0 -6 -1 -6l-1 -1q-2 -1 -4 -3l-4 -4q-5 -4 -9 -8q-9 -7 -15 2l-36 39q-5 6 1 12q1 1 10 7l10 8q3 3 14 3q9 0 19 8q6 6 9 19q1 11 5 15l2 1q1 2 3 3q6 6 13 11q14 12 21 16q68 46 95 49q67 0 76 -1q5 0 -4 -4q-62 -27 -78 -39
q-41 -29 -19 -58q15 -20 20 -25q5 -3 -1 -7l-2 -2q-3 -2 -7.5 -6.5t-10.5 -9.5q-12 -11 -19 -18q-8 -3 -9 -2q-22 25 -37 31q-14 6 -34 -6zM226 323l209 -244q10 -11 -1 -20l-24 -21q-11 -7 -20 2l-212 242q-3 3 0 10l37 32q7 3 11 -1zM509 426q9 -53 -8 -85
q-26 -45 -79 -32q-29 6 -51 -16l-42 -40l-35 40l35 36q11 11 16 27q3 15 3 33q0 22 2 30q8 29 72 57q6 3 9 -1q4 -5 1 -8q-6 -7 -23 -41q-7 -4 -6 -18q0 -13 20 -27q29 -21 49 11l14 21q9 15 11 17q2 5 7 5q5 -2 5 -9zM70 76l130 127l39 -44l-126 -124q-10 -10 -20 -2
l-23 23q-12 9 0 20v0z" />
    <glyph glyph-name="uniE00B" unicode="&#xe00b;" 
d="M478 232q13 -22 7 -49l-17 -94q-2 -11 -10 -18q-10 -8 -20 -8h-365q-9 0 -19 8t-10 18l-18 94q-4 25 7 49l81 192q12 23 37 23h209q26 0 38 -23zM443 165q2 11 -5 19q-6 9 -18 9h-329q-12 0 -18 -9q-7 -8 -5 -19l7 -38q1 -12 10 -19q10 -8 20 -8h302q10 0 20 8q9 7 10 19
l6 38v0z" />
    <glyph glyph-name="uniE00D" unicode="&#xe00d;" 
d="M256 448q-80 0 -136 -56t-56 -136t56 -136t136 -56t136 56t56 136t-56 136t-136 56zM256 115q-58 0 -99.5 41.5t-41.5 99.5q0 52 33 90l198 -198q-38 -33 -90 -33zM364 166l-198 198q38 33 90 33q58 0 99.5 -41.5t41.5 -99.5q0 -52 -33 -90z" />
    <glyph glyph-name="uniE00E" unicode="&#xe00e;" 
d="M256 502q102 0 174 -72q72 -74 72 -174q0 -102 -72 -174t-174 -72q-100 0 -174 72q-72 72 -72 174q0 100 72 174q74 72 174 72zM466 256q0 69 -40 122q-40 54 -103 77q-9 -12 -9 -17q3 -19 10 -26q6 -6 15 -3l16 6q4 0 11 1q10 -12 0 -24q-12 -12 -23 -29q-12 -16 -1 -39
q18 -33 49 -33q15 -1 22 -19q7 -16 9 -33q5 -43 -7 -72q-12 -22 7 -39q44 58 44 128zM227 463q-58 -8 -102 -43q-44 -36 -65 -89l4 -1h8q2 0 7 -0.5t7 -1.5q5 0 13 -2t13 -4q5 -3 6 -7q2 -6 -7 -23q-10 -16 -10 -31t20 -29q19 -12 19 -23q0 -7 4 -35q4 -19 4 -22
q0 -6 19 -28t27 -22q5 0 5 12q1 6 -1 27q-1 11 -1 21q0 17 7 38q6 21 30 36q23 13 28 23q8 16 5 31q-4 14 -9 22q-4 9 -17 15q-16 7 -21 8q-12 4 -19 5q-4 1 -9 2h-3q-6 2 -21 4q-12 0 -18 -2t-14 6q-9 8 -9 15q0 5 8 13q5 6 18 19q2 3 7 8.5t7 7.5q6 8 9 10q6 6 11 9
q1 1 6 4.5t8 5.5q2 3 13 9q11 8 13 12zM190 56q33 -10 66 -10q64 0 116 35q-14 23 -61 17q-11 0 -33 -8q-6 -3 -11.5 -5t-8.5 -3t-4 -1q-33 -8 -39 -8q-6 -2 -13 -7q-6 -6 -12 -10v0z" />
    <glyph glyph-name="uniE010" unicode="&#xe010;" 
d="M450 117q15 -18 3 -32l-24 -24q-18 -15 -35 0l-97 98q-37 -22 -80 -22q-66 0 -114 49q-49 48 -49 114q0 64 46 112q47 47 112 47q66 0 115 -49t49 -114q0 -46 -24 -83zM102 300q0 -45 35 -80t80 -35t77 33q33 32 33 78q0 44 -35 79t-80 35q-46 0 -77 -33q-33 -31 -33 -77
v0z" />
    <glyph glyph-name="uniE011" unicode="&#xe011;" 
d="M425 249h-98v-179h-142v179h-98l169 194l169 -194v0z" />
    <glyph glyph-name="uniE012" unicode="&#xe012;" 
d="M425 264l-169 -194l-169 194h98v179h142v-179h98v0z" />
    <glyph glyph-name="uniE013" unicode="&#xe013;" 
d="M302 206q-106 0 -170 -23q-63 -24 -106 -101q2 10 6 27q4 14 26 60q21 44 49 76q29 34 80 60q51 27 115 27v98l184 -165l-184 -171v112v0z" />
    <glyph glyph-name="uniE015" unicode="&#xe015;" 
d="M208 168q16 28 109 145q48 60 72 87.5t28 25.5q5 -3 -49 -142q-55 -138 -71 -167q-25 -44 -70 -19q-45 26 -19 70zM256 362q-87 0 -145 -65q-60 -65 -60 -159q0 -6 0.5 -13.5t0.5 -9.5q1 -12 -6 -19q-8 -8 -17 -9q-10 -1 -19 6q-8 7 -9 18v13q-1 6 -1 14q0 116 74 196
q75 80 182 80q38 0 69 -10l-36 -44q-14 2 -33 2zM441 331q71 -80 71 -193q0 -22 -1 -28q-2 -12 -8 -17q-7 -7 -18 -7h-2q-9 1 -18 10q-6 10 -5 19q0 1 0.5 9t0.5 14q0 76 -41 137q1 2 4 11t6 16q9 21 11 29v0z" />
    <glyph glyph-name="uniE016" unicode="&#xe016;" 
d="M376 255q60 -19 60 -70q0 -52 -65 -101q-65 -48 -160 -48q-82 0 -146 40q-64 39 -64 100q0 67 75 143q45 47 95 67q49 18 69 -2q18 -18 5 -59q-3 -8 4 -8l8 1q37 18 69 18q30 0 43 -18q11 -17 -1 -51q-3 -9 8 -12zM211 74q62 6 103 39q42 33 37 74q-5 42 -51 66t-109 18
t-103 -39q-41 -33 -36 -74q4 -40 50 -66q46 -24 109 -18zM511 324v-1q0 -7 -6 -13q-5 -5 -12 -5q-6 0 -13 5q-5 7 -5 13q0 49 -35 83q-34 34 -83 34q-8 0 -13 5q-5 7 -5 14q0 17 18 17q63 0 109 -44q45 -45 45 -108zM439 326q3 -7 -2 -14q-3 -6 -11 -8q-17 -1 -22 14
q-3 21 -18 34q-14 14 -34 19q-18 3 -13 20q5 18 21 15q31 -8 52 -29t27 -51zM169 218q22 6 45 -6q21 -12 25 -32q5 -21 -10 -39q-15 -20 -41 -23q-24 -6 -45 6q-19 10 -24 32q-5 20 10 39q16 19 40 23v0z" />
    <glyph glyph-name="uniE017" unicode="&#xe017;" 
d="M185 231l-133 -133q-3 -3 -6 -3q-4 0 -7 3l-14 14q-3 3 -3 7q0 5 3 6l112 113l-112 112q-3 3 -3 7q0 3 3 6l14 14q3 3 7 3q3 0 6 -3l133 -133q3 -3 3 -6q0 -4 -3 -7zM494 101v-19q0 -4 -3 -6q-3 -3 -6 -3h-275q-4 0 -6 3q-3 2 -3 6v19q0 3 3 6q2 3 6 3h275q3 0 6 -3t3 -6
z" />
    <glyph glyph-name="uniE019" unicode="&#xe019;" 
d="M389 282q15 0 15 -26t-15 -26h-266q-15 0 -15 26t15 26h266v0z" />
    <glyph glyph-name="uniE01A" unicode="&#xe01a;" 
d="M256 474l133 -125h-84v-131h-97v131h-85zM495 178q9 -4 14 -16q5 -13 2 -21l-14 -79q-3 -10 -12 -16q-8 -7 -20 -7h-418q-11 0 -21 7q-7 5 -11 16l-14 79q-6 25 16 37l81 55h50l-87 -66h91q4 0 7 -4l20 -57h154l20 57q4 4 6 4h91l-87 66h51l81 -55v0z" />
    <glyph glyph-name="uniE01B" unicode="&#xe01b;" 
d="M495 178q9 -4 14 -16q5 -13 2 -21l-14 -79q-3 -10 -12 -16q-8 -7 -20 -7h-418q-11 0 -21 7q-7 5 -11 16l-14 79q-6 25 16 37l81 55h50l-87 -66h91q4 0 7 -4l20 -57h154l20 57q4 4 6 4h91l-87 66h51zM389 343l-133 -125l-133 125h85v131h97v-131h84v0z" />
    <glyph glyph-name="uniE01C" unicode="&#xe01c;" 
d="M213 331q33 0 56.5 -21.5t28.5 -53.5h75q-1 12 -5 29l61 35l-43 74l-61 -35q-30 30 -69 40v70h-85v-70q-40 -11 -70 -40l-60 35l-43 -74l61 -35q-6 -18 -6 -40q0 -21 6 -40l-61 -35l43 -74l60 35q30 -28 70 -40v-70h85v151q-22 -12 -43 -12q-35 0 -60 25t-25 60t25 60.5
t60 25.5zM491 128q0 7 -4 23l40 23l-22 36l-39 -22q-16 16 -39 22v46h-43v-46q-25 -7 -40 -22l-39 22l-21 -36l39 -23q-3 -12 -3 -23t3 -23l-39 -23l21 -36l39 22q15 -15 40 -22v-46h43v46q23 6 39 22l40 -22l21 36l-40 23q4 16 4 23zM405 85q-17 0 -29.5 12.5t-12.5 30.5
t12.5 30.5t29.5 12.5q18 0 30.5 -12.5t12.5 -30.5t-12.5 -30.5t-30.5 -12.5z" />
    <glyph glyph-name="uniE014" unicode="&#xe014;" 
d="M318 512q24 0 38 -14t14 -35q0 -25 -20 -45q-22 -20 -49 -20q-24 0 -38 14q-13 13 -12 37q0 23 18 43t49 20zM213 0q-50 0 -28 91l31 130q8 29 0 29q-6 0 -28 -9q-26 -13 -36 -20l-14 23q50 42 97 64q50 25 77 25q40 0 19 -83l-36 -136q-9 -33 3 -33q23 0 60 31l16 -21
q-45 -45 -90 -67q-47 -24 -71 -24v0z" />
    <glyph glyph-name="uniE018" unicode="&#xe018;" 
d="M457 302v-55q0 -10 -8 -20q-8 -8 -19 -8h-119v-118q0 -12 -8 -20t-20 -8h-54q-12 0 -20 8t-8 20v118h-119q-11 0 -19 8q-8 10 -8 20v55q0 11 8 19t19 8h119v119q0 11 8 19q7 8 20 8h54q13 0 20 -8q8 -8 8 -19v-119h119q11 0 19 -8t8 -19z" />
    <glyph glyph-name="uniE023" unicode="&#xe023;" 
d="M256 512q-106 0 -181 -75t-75 -181t75 -181t181 -75t181 75t75 181t-75 181t-181 75zM256 43q-88 0 -150.5 62.5t-62.5 150.5t62.5 150.5t150.5 62.5t150.5 -62.5t62.5 -150.5t-62.5 -150.5t-150.5 -62.5zM351 403q-19 8 -29 -9l-72 -145l-43 43q-6 7 -15 7t-15 -7
q-14 -14 0 -30l64 -64q6 -6 15 -6h3q11 2 16 12l85 170q4 8 1.5 16.5t-10.5 12.5zM235 107h42v-22h-42v22zM235 448h42v-21h-42v21zM64 277h43v-21h-43v21zM405 277h43v-21h-43v21z" />
    <glyph glyph-name="uniE022" unicode="&#xe022;" 
d="M55 37h82v82h-82v-82zM155 37h92v82h-92v-82zM55 137h82v92h-82v-92zM155 137h92v92h-92v-92zM55 247h82v82h-82v-82zM265 37h92v82h-92v-82zM155 247h92v82h-92v-82zM375 37h82v82h-82v-82zM265 137h92v92h-92v-92zM165 384v82q0 4 -3 7q-2 2 -7 2h-18q-4 0 -6 -2
q-3 -3 -3 -7v-82q0 -4 3 -6q3 -3 6 -3h18q4 0 7 3q3 2 3 6zM375 137h82v92h-82v-92zM265 247h92v82h-92v-82zM375 247h82v82h-82v-82zM384 384v82q0 4 -3 7q-2 2 -6 2h-18q-5 0 -7 -2q-3 -3 -3 -7v-82q0 -4 3 -6q3 -3 7 -3h18q3 0 6 3q3 2 3 6zM494 402v-365q0 -15 -11 -26
t-26 -11h-402q-15 0 -26 11t-11 26v365q0 15 11 26t26 11h36v27q0 19 14 33q13 13 32 13h18q20 0 33 -13t13 -33v-27h110v27q0 20 13 33t33 13h18q19 0 32 -13q14 -14 14 -33v-27h36q15 0 26 -11t11 -26z" />
    <glyph glyph-name="uniE024" unicode="&#xe024;" 
d="M55 37h402v292h-402v-292zM165 384v82q0 4 -3 7q-2 2 -7 2h-18q-5 0 -6 -2q-3 -3 -3 -7v-82q0 -4 3 -7q2 -2 6 -2h18q3 0 7 2q3 3 3 7zM384 384v82q0 4 -3 7q-1 2 -6 2h-18q-5 0 -7 -2q-3 -3 -3 -7v-82q0 -4 3 -7q4 -2 7 -2h18q4 0 6 2q3 3 3 7zM494 402v-365
q0 -15 -11 -26t-26 -11h-402q-15 0 -26 11t-11 26v365q0 15 11 26t26 11h36v27q0 19 14 33q13 13 32 13h18q20 0 33 -13t13 -33v-27h110v27q0 20 13 33t33 13h18q19 0 32 -13q14 -14 14 -33v-27h36q15 0 26 -11t11 -26z" />
    <glyph glyph-name="uniE025" 
d="M407 461h27v51h-370v-51h32q6 -148 101 -180v-53q-93 -32 -101 -177h-32v-51h370v51h-27q-8 145 -101 177v53q95 32 101 180zM291 206q83 -21 91 -155h-26l-45 52l-57 68l-58 -68l-45 -52h-29q6 134 90 155l10 2v93l-10 2q-85 21 -91 158h261q-6 -137 -91 -158l-10 -2
v-93zM308 357h-105l26 -31l27 -30l26 30z" />
    <glyph glyph-name="uniE025" unicode="&#xe025;" 
d="M399 395q0 -22 -24 -49q-33 -35 -50 -51q-25 -24 -25 -39t25 -39t50 -50q24 -25 24 -49v-61q0 -18 -44 -37q-45 -20 -99 -20t-99 20q-44 19 -44 37v61q0 24 24 49q25 26 50 50t25 39t-25 39q-17 16 -50 51q-24 27 -24 49v61q0 17 44 36q46 20 99 20t99 -20q44 -19 44 -36
v-61zM153 453l-10 -8q-2 -3 2 -7q49 -26 111 -26q69 0 113 25q6 6 -9 16q-48 27 -103 27q-62 0 -104 -27zM269 256q0 7 2 17q4 10 10 17q2 3 5.5 7.5t4.5 5.5q7 7 16 15l15 15q47 47 47 62l1 26q-50 -28 -114 -28t-114 28l2 -26q0 -14 46 -62q2 -1 5.5 -5t6.5 -6
q9 -9 12 -11l9 -10q3 -4 9 -11q9 -10 6 -10t4.5 -12t1.5 -12q0 -7 -1 -10q0 -4 -3 -9q-1 -1 -1.5 -2.5t-1.5 -3t-1 -2.5q-1 -2 -6 -9l-6 -8q-2 -2 -7 -8l-9 -7l-9 -9l-9 -8q-46 -46 -46 -62v-34q1 0 5 1.5t12.5 4.5t16.5 6q29 9 47 22q18 12 18 29q0 16 13 16t13 -16
q0 -17 17 -29q18 -13 48 -22q33 -11 35 -12v34q0 15 -47 62q-5 5 -11 10l-11 11l-10 10q-2 2 -5 5.5t-4 5.5q-4 6 -6 10q-1 2 -2.5 6t-2.5 6q0 2 -0.5 6t-0.5 6v0z" />
    <glyph glyph-name="uniE021" unicode="&#xe021;" 
d="M223.373 -24.0371q-41.0245 5.36573 -78.8047 24.3457q-34.3581 17.2603 -64.3401 46.6615q-29.982 29.4012 -47.1785 62.6969q-14.1485 27.3932 -22.0107 58.5859q-4.69212 18.6171 -4.7334 55.6914q-0.0386875 37.0864 2.29004 47.6689
q24.6824 112.148 120.585 170.396q15.2019 9.23332 16.7838 8.26777q5.29831 -3.23402 5.83029 -101.47q0.128807 -23.7857 0.238451 -39.2351q0.995865 -140.359 3.94336 -158.014q16.8524 -100.932 70.9775 -159.313q15.68 -17.8278 9.16406 -17.8975
q-2.1246 0.226098 -12.7451 1.61523zM369.078 41.4287q-45.1449 5.49741 -69.6318 55.2148q-20.1829 40.9791 -24.0977 119.356q-1.24582 24.9377 -1.34802 137.452q-0.102202 112.515 1.11658 117.224q1.54665 5.97512 31.2852 -0.34082q43.2759 -9.19277 81.4262 -33.0071
q38.1503 -23.8143 65.7798 -58.5757t40.5128 -75.5774q11.6671 -36.962 11.5723 -80.9961q-0.129907 -59.8924 -24.083 -107.696q-19.4078 -38.7329 -49.0215 -57.9576t-63.5107 -15.0961zM207.533 -17.96q-109.754 24.2365 -167.12 119.667
q-42.0475 69.9482 -31.4482 154.485q7.21875 57.5691 40.3942 107.077q33.1754 49.5081 84.0326 78.6065q13.0709 7.47821 15.0762 6.24023q2.00513 -1.23994 1.4043 -134.774q-0.601423 -133.53 2.6416 -156.487q10.7583 -76.1526 41.1104 -126.43
q6.49615 -10.7598 21.1882 -29.1167q14.692 -18.3569 16.8079 -18.3569q1.5127 0 1.5127 -1.76562q0 -0.506668 -0.738128 -0.860001t-2.09531 -0.519808q-1.35719 -0.166476 -3.19117 -0.188345t-4.11128 0.137244t-4.76436 0.453915t-5.24168 0.76471
q-2.75461 0.469909 -5.45768 1.06678zM356.299 46.4072q-49.7298 15.897 -68.2227 88.3789q-7.22086 28.3034 -8.57137 54.8584q-1.35051 26.555 -1.35051 140.23v139.477l5.91113 0.56543q14.573 1.39619 50.2949 -10.5674q76.4266 -25.5936 125.609 -94.1641
q25.6058 -35.6997 37.5762 -83.793q4.63125 -18.6096 4.61035 -59.2139q-0.0199154 -40.6075 -5.53418 -61.418q-9.79906 -36.9829 -29.9748 -66.3561q-20.1758 -29.3732 -43.7517 -40.9799q-34.8627 -17.1621 -66.5967 -7.01758zM358.485 45.8096
q-61.0895 16.3436 -77.2314 122.449q-3.0997 20.3725 -2.85352 125.424q0.246058 105.047 2.25391 110.144q1.4502 3.67897 2.96704 4.24036t7.94897 -0.200317q10.0173 -1.18642 28.9561 -7.22266q8.83146 -2.81356 16.8604 -2.80469q8.03232 0.00887549 9.93652 -1.89355
q2.68843 -2.68983 22.6377 -6.9248q7.06978 -1.50213 14.124 -3.50293q7.05965 -2.00233 18.5381 -4.32715q11.4772 -2.32279 16.7725 -4.12988q21.8578 -7.46094 27.9463 -7.46094q4.52229 0 12.5762 -9.88867q21.7374 -26.6842 33.2374 -66.9312
q11.4999 -40.247 9.57219 -82.891q-1.61509 -35.721 -11.9053 -66.668q-17.9282 -53.9193 -54.8451 -81.0932q-36.917 -27.1739 -77.4918 -16.3179zM64.207 72.5508q-15.9787 16.997 -28.4092 39.2832q-16.4448 29.4803 -23.7913 68.6799q-7.34646 39.1995 -3.01925 74.3739
q10.8753 88.3875 74.5059 149.355q16.2382 15.5593 38.8608 30.7948t26.2027 13.0236q2.04191 -1.26336 0.769531 -126.814q-0.996817 -98.3665 -0.0571289 -127.633t6.26221 -65.6248q3.3287 -22.7373 3.06018 -25.6255t-5.71057 -2.88818q-6.10036 0 -12.6055 -4.41406
q-8.98085 -6.09393 -11.9189 -3.97266q-0.612438 0.442021 -3.53125 -1.98145q-2.91992 -2.42439 -2.91992 -1.17969q0 1.24275 -5.94629 -2.43262q-5.94537 -3.6748 -10.0127 -3.6748q-4.06629 0 -6.85352 -2.39844q-7.47223 -6.42969 -18.7236 -6.42969
q-3.93459 0 -6.13281 -2.64746q-3.72934 -4.49503 -10.0293 2.20605zM364.831 44.7432q-17.5783 3.15092 -34.0832 16.4127q-16.5048 13.2618 -26.41 32.1947q-18.2875 34.9541 -23.501 90.8701q-2.14376 22.9893 -1.58679 86.8053t2.90808 64.599
q2.23975 0.746582 4.61914 3.12598q2.38014 2.38014 5.94922 -0.119141q3.56899 -2.50007 13.9189 -3.66309q10.3511 -1.16315 13.166 -2.60254q3.24514 -1.65902 18.4365 -4.81348q7.12463 -1.47853 16.873 -6.08984q9.74531 -4.61046 15.8232 -3.31934
q7.01211 1.48908 14.9062 -0.452148q12.6856 -3.61402 12.3535 -6.36133l7.49219 -1.75879q8.58088 0 10.5557 -1.97656q4.05809 -4.05809 21.6816 -5.84473q4.40791 -0.447 7.94434 -1.55469q3.52731 -1.10661 10.2754 -1.53125q6.74621 -0.424413 7.50391 -1.65234
q0.759761 -1.2284 7.61035 -0.308594q6.85217 0.918068 12.3584 -4.84375q5.50684 -5.76247 5.50684 -8.20508q0 -2.44131 2.56348 -3.4248q6.60867 -2.53639 9.09631 -39.2319t-2.10022 -63.9702q-6.92144 -41.1441 -27.8895 -75.2411q-20.9681 -34.0969 -47.7013 -47.6789
q-28.8193 -14.6425 -58.2705 -9.36426zM35.0176 118.455q-11.7726 17.8063 -20.9912 55.1719q-4.13672 16.7694 -4.18457 52.083q-0.0593399 44.7754 9.96289 75.917q28.4154 88.2971 109.838 137.233q14.0134 8.42188 16.5078 8.42188q2.49391 0 2.03809 -143.448
q-0.337668 -106.253 -0.862765 -125.308q-0.525097 -19.0558 -3.18802 -21.6711q-7.70312 -7.56678 -23.7256 -7.86621q-9.19265 -0.173684 -16.1621 -7.14062q-6.55415 -6.55415 -24.3359 -8.65137q-10.6166 -1.25088 -16.8584 -6.01074
q-6.23792 -4.75879 -10.3779 -4.75879q-1.95314 0 -4.38884 -1.46991q-2.4357 -1.46991 -4.13378 -3.57841q-1.69808 -2.10849 -1.69808 -3.79934q0 -6.37519 -7.43945 4.87598zM354.739 48.708q-53.9931 18.9266 -69.7998 108.12q-2.49969 14.1031 -3.59082 55.2562
t0.979492 43.2233q2.00488 2.00488 2.00488 -0.302734q0 -2.30752 2.47559 -1.35742q2.47743 0.950125 3.50098 -0.0751953q1.02538 -1.02538 6.79297 -1.40527q5.76958 -0.380022 15.4785 -3.38965q20.6173 -6.39003 33.5449 -8.13281q13.9525 -1.88052 30.0137 -7.05664
q4.41077 -1.42117 14.1162 -2.56152q9.70244 -1.14 12.6709 -3.82617q3.86059 -3.49391 23.5303 -7.66992q7.06476 -1.50068 14.124 -3.72656q7.06268 -2.22817 19.6572 -1.91211q12.5942 0.317034 14.7812 -2.31934q2.18719 -2.63458 5.94336 -2.69141
q3.7553 -0.0550163 7.18359 -2.64844q3.42614 -2.5918 6.86133 -2.5918q3.43443 0 2.46191 -16.3311q-2.19508 -36.8858 -20.4336 -72.4743t-43.9199 -53.097q-22.3439 -15.2344 -49.9141 -16.4131q-16.7732 -0.715838 -28.4629 3.38281zM22.1543 178.924
q-1.09241 1.76562 -4.21289 1.76562q-3.04609 0 -5.39178 11.4412t-2.85706 27.0245t0.83478 31.6593q10.5111 103.922 91.0859 167.313q13.1008 10.3065 28.3946 19.6974q15.2938 9.39092 17.1298 8.25572q1.46333 -0.904317 0.69519 -96.3485
q-0.768135 -95.4442 -2.36121 -110.686l-1.13184 -10.8242l-5.88965 0.935547q-5.88873 0.936549 -8.77148 -3.46289q-2.88323 -4.39941 -5.97266 -4.39941q-3.08914 0 -7.5791 -3.53125q-4.4892 -3.53027 -7.87793 -3.53027q-3.39083 0 -14.4551 -4.49707
q-11.0654 -4.49575 -13.9873 -4.00195q-2.92027 0.493216 -7.08887 -2.42676q-4.16756 -2.92102 -7.34863 -2.30859q-3.18132 0.612475 -6.25781 -2.78711q-3.07794 -3.39941 -6.65039 -3.39941q-13.7237 0 -16.9209 -9.17188q-1.73324 -4.97152 -6.35059 -6.72852
q-5.69216 -2.16331 -7.03516 0.0107422zM357.603 48.9854q-34.0777 10.8053 -52.8008 49.0381q-15.3441 31.331 -17.9375 60.0732q-1.16122 12.8817 2.16113 15.8779q4.55374 4.10469 22.6729 -2.79883q7.06177 -2.68944 13.29 -2.76758
q6.22074 -0.0727053 10.0088 -2.72559q3.78111 -2.64802 6.50977 -1.60059q2.72802 1.04719 7.91895 -2.64844q5.18936 -3.69629 9.66895 -3.69629q4.47728 0 5.53418 -1.70703q1.05492 -1.70848 6.04883 -0.708984q4.99379 0.998048 14.4971 -0.96582
q9.75499 -2.01588 13.0342 -2.68359q3.52431 -0.715848 15.0068 -5.02246q11.4773 -4.30383 21.0752 -3.67285q9.5993 0.631418 13.2412 -2.69727q11.8044 -10.79 24.6543 -10.79q6.14561 0 6.99805 -1.37988q1.13818 -1.84131 -6.62781 -16.9469
q-7.76599 -15.1056 -14.253 -23.6683q-22.7253 -30.0005 -54.7979 -38.5811q-8.25727 -2.209 -23.5592 -2.18494t-22.3441 2.2572zM13.2168 253.766q-2.95822 11.7908 9.15234 48.6025q17.5555 53.3562 55.9873 93.4424q19.3904 20.2258 49.6377 39.2363
q16.6617 10.4697 17.6436 10.4697q0.653545 0 0.882215 -31.0411q0.22867 -31.0411 -0.0740002 -65.2454q-0.30267 -34.2043 -0.965441 -42.0398q-1.14143 -13.5078 -3.60059 -13.5078q-2.46039 0 -9.38086 -3.53125q-6.92224 -3.53125 -11.5801 -3.53125
q-4.65961 0 -10.2227 -2.5498q-5.56721 -2.55171 -15.7148 -5.42188q-10.1514 -2.87072 -10.1514 -4.23242q0 -1.36154 -7.0625 -3.47656q-7.0625 -2.1168 -7.0625 -3.83887q0 -1.72146 -5.16992 -1.3291q-5.1729 0.394363 -9.26855 -1.59668
q-23.7631 -11.5402 -27.9639 -10.207q-3.0013 0.953105 -5.2334 -1.73535q-2.562 -3.0872 -5.75208 -2.59082q-3.19007 0.496376 -4.10046 4.12402zM363.249 48.4443q-15.6302 3.67832 -29.9612 15.2822q-14.331 11.6039 -24.6503 28.7201
q-10.3193 17.1162 -14.5028 36.5231q-0.851044 3.94761 -0.415894 4.65137t3.29089 -0.000976562q4.09788 -1.0107 20.8682 -2.35645q16.7745 -1.34786 23.835 -3.45996q7.07901 -2.1164 14.124 -3.42871q7.05848 -1.31692 15.3252 -5.00977
q8.26373 -3.69329 20.3027 -4.82422q24.8988 -2.33934 35.4873 -8.28418q5.79317 -3.25 9.2959 -3.25q3.70798 0 14.1723 -2.9941q10.4644 -2.9941 10.4644 -4.05473q0 -1.60724 -3.18304 -6.21471q-3.18304 -4.60747 -7.86667 -9.89838q-4.68363 -5.29092 -8.6876 -8.72187
q-37.5518 -32.1746 -77.8984 -22.6787zM19.5059 286.765q0 7.2218 9.5926 30.1888q9.5926 22.967 18.2834 36.5524q23.3876 36.5618 55.1035 61.8984q10.2054 8.15318 25.3372 18.2499t17.1452 10.0968q1.21295 0 1.44727 -32.4919t-0.802734 -56.9182l-1.21094 -28.501
l-7.27539 -1.16113q-7.2739 -1.16113 -10.8066 -3.39551q-3.53113 -2.23514 -13.6826 -4.45117q-10.1514 -2.21739 -10.1514 -3.6416q0 -1.42369 -5.73828 -3.54004q-5.72825 -2.11087 -15.418 -6.73535q-9.68411 -4.6218 -17.6553 -6.12305
q-18.4897 -3.48257 -19.4512 -4.89258q-1.13661 -1.66903 -9.68401 -5.23979q-8.5474 -3.57076 -11.4049 -3.57076q-3.62793 0 -3.62793 3.67578z" />
    <glyph glyph-name="uniE026" unicode="&#xe026;" 
d="M428 318l-167 129q-7 7 -16 0l-161 -129q-5 -3 -5 -10v-233q0 -13 13 -13h96q13 0 13 13v143h110v-143q0 -13 13 -13h96q13 0 13 13v233q0 7 -5 10z" />
    <glyph glyph-name="uniE028" unicode="&#xe028;" 
d="M442 392l-20 -20l-19 -19l-25 -24q-20 -2 -36 13q-15 16 -13 36l63 64q2 2 0 4q0 1 -1 1v0q-23 10 -45 10q-46 0 -78.5 -32.5t-32.5 -78.5q0 -18 6 -33l-116 -116q-29 -1 -49.5 -21.5t-20.5 -49.5t21 -50t50 -21t49.5 20.5t21.5 49.5l116 116q15 -6 33 -6q46 0 78.5 32.5
t32.5 78.5q0 22 -10 45v1h-1q-2 2 -4 0zM156 126q0 -12 -9 -20.5t-21 -8.5t-20.5 8.5t-8.5 20.5t8.5 21t20.5 9t21 -9t9 -21z" />
    <glyph glyph-name="uniE027" unicode="&#xe027;" 
d="M256 369q-15 0 -24.5 -8.5t-9.5 -22.5q0 -13 9.5 -21.5t24.5 -8.5q16 0 25 8t9 22q0 31 -34 31zM224 288h64v-145h-64v145zM256 484q-94 0 -161 -67t-67 -161t67 -161t161 -67t161 67t67 161t-67 161t-161 67zM256 85q-70 0 -120.5 50.5t-50.5 120.5t50.5 120.5
t120.5 50.5t120.5 -50.5t50.5 -120.5t-50.5 -120.5t-120.5 -50.5z" />
    <glyph glyph-name="uniE029" unicode="&#xe029;" 
d="M512 128v-37q0 -7 -5 -12q-6 -6 -13 -6h-476q-7 0 -13 6q-5 5 -5 12v37q0 6 5 13q7 5 13 5h476q6 0 13 -5q5 -7 5 -13zM402 238v-37q0 -6 -5 -13q-7 -5 -13 -5h-366q-6 0 -13 5q-5 7 -5 13v37q0 6 5 13q7 5 13 5h366q6 0 13 -5q5 -7 5 -13zM475 347v-36q0 -8 -5 -13
t-13 -5h-439q-8 0 -13 5q-5 7 -5 13v36q0 8 5 13q6 6 13 6h439q7 0 13 -6q5 -4 5 -13zM366 457v-36q0 -9 -6 -13q-4 -6 -13 -6h-329q-7 0 -13 6q-5 5 -5 13v36q0 6 5 13q5 5 13 5h329q9 0 13 -5q6 -6 6 -13z" />
    <glyph glyph-name="uniE02A" unicode="&#xe02a;" 
d="M256 256q-14 0 -23 9t-9 23v160q0 14 9 23t23 9t23 -9t9 -23v-160q0 -14 -9 -23t-23 -9zM379 443q47 -31 74 -80t27 -107q0 -93 -65.5 -158.5t-158.5 -65.5t-158.5 65.5t-65.5 158.5q0 58 27 107t74 80q8 5 17 5q14 0 23 -9t9 -23q0 -9 -5 -17q-4 -6 -7 -8q-1 -1 -4 -3
q-16 -12 -23 -19q-47 -47 -47 -113t47 -113t113 -47t113 47t47 113t-47 113q-7 7 -23 19l-2 1q-2 1 -2 2q-3 2 -7 8q-5 8 -5 17q0 14 9 23t23 9q9 0 17 -5z" />
    <glyph glyph-name="uniE02B" unicode="&#xe02b;" 
d="M298.304 243.669q-3.94629 0 -3.94629 3.94727v40.2773q0 3.94629 3.94629 3.94629h45.2061q3.96777 0 3.96777 -3.96777v-40.2559q-0.0212314 -3.94727 -3.96777 -3.94727h-45.2061zM235.285 359.51h45.1846q3.96777 0 3.96777 3.96777v40.2773
q-0.0212261 3.94629 -3.96777 3.94629h-45.1846q-3.94629 0 -3.94629 -3.94629v-40.2773q0 -3.94727 3.94629 -3.96777zM235.285 301.589q-3.94629 0.0385859 -3.94629 3.96875v40.2559q0 3.94629 3.94629 3.94629h45.1846q3.94655 0 3.96777 -3.94629v-40.2559
q-0.0212328 -3.94752 -3.96777 -3.96875h-45.1846zM172.778 301.589h45.2266q3.92578 0.04246 3.92578 3.96777v40.2568q0 3.94629 -3.94629 3.94629h-45.1846q-3.94629 0 -3.94629 -3.94629v-40.2559q0 -3.92978 3.9248 -3.96875zM109.568 301.589
q-3.96875 0.0391712 -3.96875 3.96875v40.2559q0.0212261 3.94629 3.96875 3.94629h45.2051q3.94629 0 3.94629 -3.94629v-40.2559q0 -3.94752 -3.94629 -3.96875h-45.2051zM235.285 243.669q-3.94629 0 -3.94629 3.94727v40.2773q0 3.94629 3.94629 3.94629h45.1846
q3.96777 0 3.96777 -3.96777v-40.2559q-0.0212314 -3.94727 -3.96777 -3.94727h-45.1846zM172.778 243.669h45.2266q3.92578 0.02123 3.92578 3.94727v40.2559q0 3.94654 -3.92578 3.96777h-45.2266q-3.9248 -0.0212343 -3.9248 -3.94629v-40.2773
q0 -3.94727 3.9248 -3.94727zM109.568 243.669q-3.96875 0 -3.96875 3.94727v40.2559q0 3.96777 3.96875 3.96777h45.2266q3.9248 -0.0212247 3.9248 -3.94629v-40.2773q0 -3.94727 -3.94629 -3.94727h-45.2051zM47.2744 243.669h45.2266q3.92578 0.02123 3.92578 3.94727
v40.2559q0 3.94654 -3.92578 3.96777h-45.2266q-3.9248 -0.0212247 -3.9248 -3.94629v-40.2773q0 -3.94727 3.9248 -3.94727zM506.944 269.014l5.05566 -3.98926l-2.09082 -6.14453q-5.0908 -12.8398 -15.082 -22.3145q-21.761 -21.5254 -57.1738 -21.5254h-4.71484
q-23.0628 -58.3019 -54.4639 -93.8672q-24.1394 -27.3119 -55.6797 -45.5674q-38.2854 -21.6833 -81.5576 -29.6318q-30.4765 -5.67676 -61.4795 -5.67676q-0.460938 0 -1.02734 0.00195312q-72.9443 0 -112.533 24.2559q-33.8669 20.6725 -51.4131 66.6455
q-14.5022 40.4749 -14.7842 83.4111q-0 1.60156 0.0214844 3.24512q0.0263677 6.59704 4.71442 11.2726q4.68805 4.6756 11.2856 4.68439h337.259q22.6109 0.816298 37.2051 8.95996q-16.0458 25.353 -8.59766 56.7676q3.955 16.47 13.0566 30.5068l4.82129 6.97656
l7.33789 -4.24609q3.83377 -2.18834 9.38467 -6.44041q5.55089 -4.25207 15.2082 -18.1944q9.65731 -13.9423 12.0155 -30.1064q10.6896 1.8241 21.5469 1.85645q27.8171 0 41.6855 -10.8799z" />
    <glyph glyph-name="uniE00C" unicode="&#xe00c;" 
d="M149 172l30 -30q32 32 77 32t77 -32l30 30q-43 45 -107 45t-107 -45zM80 241l30 -30q62 60 146 60t146 -60l30 30q-73 73 -176 73t-176 -73zM256 411q-144 0 -245 -101l31 -30q89 89 214 89t214 -89l31 30q-101 101 -245 101zM256 128q-14 0 -23 -9t-9 -23t9 -23t23 -9
t23 9t9 23t-9 23t-23 9z" />
    <glyph glyph-name="uniE00F" unicode="&#xe00f;" 
d="M352 384h-96v-320h96v320zM480 288h-96v-224h96v224zM32 32v64h32v32h-32v64h32v32h-32v64h32v32h-32v64h32v32h-32v64h32v32h-64v-512h512v32h-480zM224 224h-96v-160h96v160z" />
    <glyph glyph-name="uniE007" unicode="&#xe007;" 
d="M288 192v-96h64l-96 -96l-96 96h64v96h64zM224 320v96h-64l96 96l96 -96h-64v-96h-64zM192 224h-96v-64l-96 96l96 96v-64h96v-64zM320 288h96v64l96 -96l-96 -96v64h-96v64z" />
    <glyph glyph-name="uniE01D" unicode="&#xe01d;" 
d="M431 389l4 -2q18 -10 31 -32q10 -19 10 -49q0 -66 -56 -107q-53 -41 -157 -41h-15q-8 0 -17 -6q-9 -9 -10 -15l-18 -80q-6 -21 -27 -21h-54q-9 0 -15 6q-5 8 -3 15l3 13h35q8 0 17 6q7 7 10 15l18 80q6 20 27 20h15q99 0 157 41q56 42 56 108q0 27 -11 49zM134 125
q-1 -7 -9 -15q-11 -7 -17 -7h-55q-9 0 -14 7t-2 15l77 331q5 20 26 20h115q43 0 64 -4q30 -6 48 -17q20 -14 30 -32q10 -19 10 -49q0 -67 -56 -108q-55 -41 -156 -41h-16q-9 0 -16 -6q-8 -6 -10 -14zM179 316q-2 -8 3 -14q6 -6 13 -6h15q44 0 68 18q25 18 25 51q0 21 -15 32
q-17 11 -49 11h-17q-21 0 -27 -21l-16 -71v0z" />
    <glyph glyph-name="uniE01E" unicode="&#xe01e;" 
d="M293 119v54q0 4 -3 7t-7 3h-54q-4 0 -7 -3t-3 -7v-54q0 -4 3 -7q4 -2 7 -2h54q3 0 7 2q3 3 3 7zM292 226l5 131q0 3 -3 6t-7 3h-62q-4 0 -7 -3t-3 -6l5 -131q0 -2 3 -5q2 -2 6 -2h53q3 0 7 2q3 3 3 5zM288 493l219 -402q11 -18 0 -36q-3 -6 -13 -14q-8 -4 -19 -4h-438
q-11 0 -19 4q-10 8 -13 14q-11 18 0 36l219 402q3 6 13 14q10 5 19 5t19 -5q10 -8 13 -14z" />
  </font>
</defs>
</svg>
